<?xml version="1.0" encoding="UTF-8"?>
<svg version="1.1" xmlns="http://www.w3.org/2000/svg" width="32" height="32">
<path d="M0 0 C2.93835112 1.30788882 3.85011181 2.4091091 6 5 C6.875 8.8125 6.875 8.8125 7 12 C6.01 12 5.02 12 4 12 C3.54625 10.865625 3.0925 9.73125 2.625 8.5625 C1.42904194 4.95278308 1.42904194 4.95278308 -1 4 C-6.56291224 3.43090858 -6.56291224 3.43090858 -11.4375 5.625 C-13.28765829 8.4372406 -13.69750921 10.67260127 -14 14 C-14.99 14.33 -15.98 14.66 -17 15 C-17.66964286 7.23214286 -17.66964286 7.23214286 -14.625 3.5625 C-10.17480738 -0.78173565 -6.02651515 -0.80292009 0 0 Z " fill="#000000" transform="translate(21,4)"/>
<path d="M0 0 C1.32 0.66 2.64 1.32 4 2 C3.01 3.485 3.01 3.485 2 5 C1.01 4.34 0.02 3.68 -1 3 C-0.67 2.01 -0.34 1.02 0 0 Z " fill="#000000" transform="translate(9,23)"/>
<path d="M0 0 C0.99 0.99 1.98 1.98 3 3 C2.67 3.66 2.34 4.32 2 5 C1.01 4.67 0.02 4.34 -1 4 C-1.33 3.01 -1.66 2.02 -2 1 C-1.34 0.67 -0.68 0.34 0 0 Z " fill="#000000" transform="translate(6,19)"/>
<path d="M0 0 C0.99 0 1.98 0 3 0 C3.33 0.99 3.66 1.98 4 3 C2.35 3 0.7 3 -1 3 C-0.67 2.01 -0.34 1.02 0 0 Z " fill="#000000" transform="translate(14,25)"/>
<path d="M0 0 C0.66 0.33 1.32 0.66 2 1 C1.67 1.99 1.34 2.98 1 4 C0.34 4 -0.32 4 -1 4 C-1.33 3.01 -1.66 2.02 -2 1 C-1.34 0.67 -0.68 0.34 0 0 Z " fill="#000000" transform="translate(20,24)"/>
<path d="M0 0 C0.99 0.33 1.98 0.66 3 1 C2.01 1.99 1.02 2.98 0 4 C0 2.68 0 1.36 0 0 Z " fill="#000000" transform="translate(23,22)"/>
</svg>
